<svg width="231" height="27" viewBox="0 0 231 27" fill="none" xmlns="http://www.w3.org/2000/svg">
<path d="M15.4756 17.4929H5.84595V20.1678C5.84595 22.174 6.11344 23.5115 6.78217 24.4477C7.45089 25.3839 8.38711 25.7851 9.72457 25.7851C11.062 25.7851 12.132 25.2501 13.2019 24.3139C14.1382 23.3777 14.9406 22.0403 15.3419 20.4353H15.8769C15.4756 22.3077 14.6731 23.9127 13.4694 24.9826C12.2657 26.0526 10.7945 26.5876 8.92209 26.5876C6.51468 26.5876 4.5085 25.7851 2.90355 24.1802C1.29861 22.5752 0.629883 20.5691 0.629883 18.1616C0.629883 15.888 1.43235 14.0155 2.90355 12.4106C4.37475 10.8056 6.24719 10.0032 8.38711 10.0032C10.3933 10.0032 11.9982 10.6719 13.3357 12.1431C14.8069 13.4806 15.4756 15.2192 15.4756 17.4929ZM10.3933 16.9579V14.283C10.3933 12.8118 10.2595 11.7419 9.85831 11.2069C9.45707 10.8056 8.92209 10.5382 8.11962 10.5382C7.1834 10.5382 6.64842 10.8056 6.38093 11.3406C5.9797 11.8756 5.84595 12.9456 5.84595 14.6843V16.9579H10.3933V16.9579Z" fill="#000"/>
<path d="M19.222 1.70937H17.2158V1.04064H20.1582C21.0944 1.04064 21.8969 1.04064 22.5656 0.906895C23.1006 0.77315 23.6355 0.77315 24.1705 0.639404V25.516H26.3105V26.051H17.082V25.516H19.222V1.70937V1.70937Z" fill="#000"/>
<path d="M27.3789 26.0507V25.5157H30.3213V1.70901H27.3789V1.04028H47.1732V7.86129H46.6382C46.3707 5.58762 45.702 3.98268 44.6321 3.04646C43.5621 2.11025 41.8234 1.57526 39.2822 1.57526H35.8049V12.5424H37.811C39.0148 12.5424 39.951 12.1411 40.6197 11.3387C41.2884 10.5362 41.6897 9.33249 41.6897 7.86129V7.46006H42.2246V18.2934H41.6897V18.0259C41.6897 16.5547 41.4222 15.351 40.7534 14.4148C39.951 13.6123 39.1485 13.2111 37.9448 13.2111H35.9386V25.5157H39.5497C42.4921 25.5157 44.4983 24.9807 45.8358 23.777C47.0395 22.5733 47.7082 20.7008 47.7082 18.0259H48.2432V26.0507H27.3789V26.0507Z" fill="#000"/>
<path d="M65.0939 21.1015H65.6288C65.3614 22.8402 64.5589 24.1777 63.4889 25.1139C62.419 26.0501 60.9478 26.4513 59.0753 26.4513C56.6679 26.4513 54.6617 25.6489 52.923 24.0439C51.3181 22.439 50.5156 20.5665 50.5156 18.2929C50.5156 17.0891 50.7831 15.8854 51.3181 14.8155C51.8531 13.7455 52.6555 12.8093 53.5918 11.8731C54.3942 11.2044 55.3305 10.6694 56.2667 10.2681C57.2029 9.8669 58.2729 9.73315 59.2091 9.73315C61.0815 9.73315 62.5527 10.1344 63.6227 10.9369C64.6926 11.7393 65.3614 12.8093 65.3614 14.013C65.3614 14.6817 65.0939 15.3505 64.6926 15.7517C64.2914 16.1529 63.7564 16.4204 62.9539 16.4204C62.1515 16.4204 61.6165 16.1529 61.2153 15.7517C60.814 15.3505 60.5465 14.8155 60.5465 14.013C60.5465 13.478 60.814 12.943 61.2153 12.4081C61.6165 12.0068 61.884 11.7393 61.884 11.7393C61.884 11.3381 61.6165 11.0706 61.2153 10.9369C60.6803 10.6694 60.1453 10.5356 59.3428 10.5356C58.0054 10.5356 57.2029 10.9369 56.6679 11.7393C56.1329 12.5418 55.8654 14.013 55.8654 16.2867V19.7641C55.8654 22.0377 56.1329 23.6427 56.6679 24.5789C57.2029 25.5151 58.2729 25.9163 59.6103 25.9163C60.9478 25.9163 62.0177 25.5151 63.0877 24.5789C64.0239 23.7764 64.6926 22.5727 65.0939 21.1015Z" fill="#000"/>
<path d="M67.2363 18.2954C67.2363 17.2254 67.5038 16.1555 67.9051 15.0855C68.3063 14.0155 68.975 13.0793 69.9112 12.2768C70.7137 11.4744 71.6499 10.9394 72.5861 10.5382C73.5224 10.1369 74.5923 10.0032 75.6623 10.0032C76.7322 10.0032 77.8022 10.1369 78.8722 10.5382C79.8084 10.9394 80.7446 11.4744 81.5471 12.2768C82.4833 13.0793 83.152 14.0155 83.5533 15.0855C83.9545 16.1555 84.222 17.2254 84.222 18.2954C84.222 19.3653 83.9545 20.4353 83.5533 21.5053C83.152 22.5752 82.4833 23.3777 81.5471 24.3139C80.7446 25.1164 79.8084 25.6514 78.8722 26.0526C77.936 26.4538 76.866 26.5876 75.796 26.5876C73.3886 26.5876 71.3824 25.7851 69.7775 24.1802C68.0388 22.4415 67.2363 20.5691 67.2363 18.2954ZM78.8722 20.3016V16.1555C78.8722 13.8818 78.6047 12.4106 78.2034 11.6081C77.6685 10.8056 76.866 10.5382 75.6623 10.5382C74.4586 10.5382 73.6561 10.9394 73.1211 11.6081C72.5861 12.4106 72.4524 13.8818 72.4524 16.1555V20.3016C72.4524 22.5752 72.7199 24.0464 73.1211 24.8489C73.6561 25.6514 74.4586 25.9189 75.6623 25.9189C76.866 25.9189 77.6685 25.5176 78.2034 24.8489C78.6047 24.0464 78.8722 22.5752 78.8722 20.3016Z" fill="#000"/>
<path d="M92.5133 25.5159H94.6532V26.0509H85.4248V25.5159H87.5647V10.9376H85.4248V10.4027H88.3672C89.3034 10.4027 89.9721 10.4027 90.6409 10.2689C91.3096 10.1352 91.8446 10.1352 92.3796 9.86768V13.3451C93.0483 12.1413 93.8508 11.3389 94.9207 10.8039C95.8569 10.2689 97.0606 9.86768 98.2644 9.86768C99.8693 9.86768 101.073 10.2689 102.009 11.0714C102.945 11.8739 103.347 13.0776 103.347 14.5488V25.5159H105.487V26.0509H96.3919V25.5159H98.3981V13.88C98.3981 12.8101 98.2644 12.1413 97.9969 11.7401C97.7294 11.3389 97.1944 11.2051 96.5257 11.2051C95.4557 11.2051 94.5195 11.6064 93.717 12.5426C92.9146 13.4788 92.6471 14.6825 92.6471 16.02V25.5159H92.5133Z" fill="#000"/>
<path d="M106.691 18.2954C106.691 17.2254 106.959 16.1555 107.36 15.0855C107.761 14.0155 108.43 13.0793 109.366 12.2768C110.169 11.4744 111.105 10.9394 112.041 10.5382C112.977 10.1369 114.047 10.0032 115.117 10.0032C116.187 10.0032 117.257 10.1369 118.327 10.5382C119.263 10.9394 120.2 11.4744 121.002 12.2768C121.938 13.0793 122.607 14.0155 123.008 15.0855C123.41 16.1555 123.677 17.2254 123.677 18.2954C123.677 19.3653 123.41 20.4353 123.008 21.5053C122.607 22.5752 121.938 23.3777 121.002 24.3139C120.2 25.1164 119.263 25.6514 118.327 26.0526C117.391 26.4538 116.321 26.5876 115.251 26.5876C112.844 26.5876 110.838 25.7851 109.233 24.1802C107.494 22.4415 106.691 20.5691 106.691 18.2954ZM118.461 20.3016V16.1555C118.461 13.8818 118.194 12.4106 117.792 11.6081C117.257 10.8056 116.455 10.5382 115.251 10.5382C114.047 10.5382 113.245 10.9394 112.71 11.6081C112.175 12.4106 112.041 13.8818 112.041 16.1555V20.3016C112.041 22.5752 112.309 24.0464 112.71 24.8489C113.245 25.6514 114.047 25.9189 115.251 25.9189C116.455 25.9189 117.257 25.5176 117.792 24.8489C118.194 24.0464 118.461 22.5752 118.461 20.3016Z" fill="#000"/>
<path d="M146.281 26.0498V25.5149H148.287V13.879C148.287 12.8091 148.154 12.1403 147.886 11.7391C147.619 11.3379 147.084 11.2041 146.415 11.2041C145.345 11.2041 144.409 11.6053 143.606 12.5416C142.937 13.4778 142.536 14.6815 142.536 16.0189V25.5149H144.542V26.0498H135.581V25.5149H137.588V13.879C137.588 12.8091 137.454 12.1403 137.186 11.7391C136.919 11.3379 136.384 11.2041 135.715 11.2041C134.645 11.2041 133.709 11.6053 132.907 12.5416C132.238 13.4778 131.837 14.6815 131.837 16.0189V25.5149H133.843V26.0498H124.882V25.5149H127.022V10.9366H124.882V10.4016H127.69C128.493 10.4016 129.295 10.4016 129.83 10.2679C130.499 10.1341 131.034 10.1341 131.569 9.86666V13.344C132.238 12.1403 133.04 11.3379 133.977 10.6691C134.913 10.1341 135.983 9.73291 137.186 9.73291C138.524 9.73291 139.594 10.0004 140.53 10.6691C141.466 11.3379 142.001 12.1403 142.135 13.2103C142.804 12.1403 143.606 11.2041 144.542 10.6691C145.479 10.1341 146.549 9.73291 147.752 9.73291C149.357 9.73291 150.561 10.1341 151.497 10.9366C152.433 11.7391 152.835 12.9428 152.835 14.414V25.3811H154.841V25.9161H146.281V26.0498Z" fill="#000"/>
<path d="M158.449 10.9378H156.31V10.4028H159.252C160.054 10.4028 160.857 10.4028 161.526 10.2691C162.194 10.1353 162.863 10.1353 163.398 9.86783V25.516H165.538V26.051H156.31V25.516H158.449V10.9378ZM158.182 3.44806C158.182 2.64558 158.449 1.97686 158.984 1.44188C159.519 0.906895 160.188 0.639404 160.991 0.639404C161.793 0.639404 162.462 0.906895 162.997 1.44188C163.532 1.97686 163.799 2.64558 163.799 3.31431C163.799 4.11678 163.532 4.78551 162.997 5.32049C162.462 5.85547 161.793 6.12296 160.991 6.12296C160.188 6.12296 159.519 5.85547 158.984 5.32049C158.449 4.91925 158.182 4.25053 158.182 3.44806Z" fill="#000"/>
<path d="M167.543 26.4521V20.5673H168.078C168.88 22.4397 169.817 23.7772 170.753 24.5797C171.689 25.3821 172.893 25.9171 174.096 25.9171C175.033 25.9171 175.835 25.6496 176.504 25.1146C177.039 24.5797 177.44 23.7772 177.44 22.841C177.44 21.6373 176.236 20.8348 173.829 20.4336C173.294 20.2998 172.893 20.2998 172.625 20.2998C170.753 20.0323 169.549 19.4973 168.747 18.6949C167.944 17.8924 167.543 16.8224 167.543 15.485C167.543 13.88 168.078 12.5426 169.148 11.4726C170.218 10.4027 171.422 9.86768 173.027 9.86768C173.829 9.86768 174.631 10.0014 175.434 10.2689C176.37 10.5364 176.771 10.6701 176.905 10.6701C177.173 10.6701 177.306 10.6701 177.44 10.5364C177.574 10.4027 177.708 10.2689 177.841 10.0014H178.51V15.0837H177.841C177.306 13.6125 176.638 12.4088 175.835 11.6064C175.033 10.8039 173.963 10.5364 172.759 10.5364C171.823 10.5364 171.02 10.8039 170.485 11.3389C169.817 11.8739 169.549 12.5426 169.549 13.3451C169.549 13.7463 169.683 14.0138 169.817 14.2813C169.95 14.5488 170.218 14.8163 170.619 15.0837C171.02 15.3512 171.689 15.485 172.759 15.485C173.829 15.6187 174.765 15.7525 175.3 15.8862C176.771 16.2875 177.841 16.8224 178.51 17.4912C179.179 18.2936 179.446 19.3636 179.446 20.701C179.446 22.4397 178.911 23.9109 177.841 24.9809C176.771 26.0509 175.3 26.5858 173.562 26.5858C173.027 26.5858 172.224 26.4521 171.422 26.1846C170.485 25.9171 169.95 25.7834 169.549 25.7834C169.148 25.7834 168.747 25.7834 168.479 25.9171C168.212 26.0509 168.078 26.1846 167.944 26.5858H167.543V26.4521Z" fill="#000"/>
<path d="M181.054 10.399C182.792 10.399 184.13 9.73023 185.2 8.52653C186.27 7.18907 187.072 5.45038 187.34 3.04297H187.875V10.399H191.218V10.9339H187.875V22.7035C187.875 23.506 188.008 24.1747 188.142 24.576C188.276 24.9772 188.677 25.1109 189.078 25.1109C189.48 25.1109 189.881 24.9772 190.148 24.7097C190.55 24.4422 190.817 24.041 191.085 23.6397L191.62 23.9072C191.218 24.7097 190.55 25.3784 189.747 25.7797C188.945 26.1809 188.008 26.4484 187.072 26.4484C185.601 26.4484 184.531 26.0472 183.862 25.2447C183.194 24.4422 182.926 23.1048 182.926 21.0986V10.9339H180.92V10.399H181.054Z" fill="#000"/>
<path d="M207.533 22.1722C207.533 23.1085 207.667 23.9109 207.801 24.1784C207.934 24.5797 208.202 24.7134 208.603 24.7134C208.871 24.7134 209.138 24.5797 209.405 24.3122C209.673 24.0447 209.807 23.6434 209.94 22.9747H210.475C210.342 24.0447 209.94 24.8472 209.272 25.5159C208.603 26.1846 207.667 26.4521 206.731 26.4521C205.794 26.4521 204.992 26.3184 204.323 25.9171C203.788 25.5159 203.253 24.9809 202.986 24.0447C202.584 24.8472 202.05 25.5159 201.381 25.9171C200.578 26.3184 199.776 26.5858 198.706 26.5858C196.566 26.5858 194.961 26.1846 193.891 25.3821C192.821 24.5797 192.152 23.5097 192.152 22.0385C192.152 20.2998 193.089 19.0961 194.827 18.1599C196.566 17.3574 199.241 16.9562 202.852 16.9562V14.6825C202.852 12.9438 202.584 11.7401 202.183 11.2051C201.648 10.6701 200.846 10.4027 199.375 10.4027C198.572 10.4027 197.903 10.5364 197.368 10.8039C196.833 11.0714 196.566 11.3389 196.566 11.6064C196.566 11.7401 196.7 11.8739 197.101 12.0076C197.368 12.2751 197.636 12.4088 197.903 12.5426C198.037 12.6763 198.171 12.9438 198.305 13.0776C198.438 13.3451 198.438 13.6125 198.438 13.88C198.438 14.5488 198.305 14.95 197.903 15.3512C197.502 15.7525 196.967 15.8862 196.298 15.8862C195.496 15.8862 194.961 15.7525 194.56 15.3512C194.159 14.95 193.891 14.415 193.891 13.7463C193.891 12.5426 194.426 11.6064 195.63 10.9376C196.833 10.2689 198.305 9.86768 200.311 9.86768C201.381 9.86768 202.451 10.0014 203.253 10.1352C204.189 10.4027 204.992 10.6701 205.661 11.0714C206.463 11.4726 206.864 12.0076 207.266 12.6763C207.533 13.3451 207.667 14.2813 207.667 15.485V22.1722H207.533ZM202.852 17.4912H202.584C200.445 17.4912 198.973 17.7587 198.305 18.2936C197.636 18.8286 197.235 19.8986 197.235 21.3698C197.235 22.841 197.368 24.0447 197.77 24.5797C198.171 25.2484 198.84 25.5159 199.776 25.5159C200.846 25.5159 201.515 25.1146 202.05 24.4459C202.584 23.7772 202.852 22.7072 202.852 21.236V17.4912Z" fill="#000"/>
<path d="M211.275 24.9793C211.275 24.5781 211.409 24.3106 211.677 24.0431C211.944 23.7756 212.212 23.6418 212.613 23.6418C213.014 23.6418 213.282 23.7756 213.549 24.0431C213.817 24.3106 213.95 24.5781 213.95 24.9793C213.95 25.3805 213.817 25.648 213.549 25.9155C213.282 26.183 213.014 26.3168 212.613 26.3168C212.212 26.3168 211.944 26.183 211.677 25.9155C211.409 25.7818 211.275 25.3805 211.275 24.9793Z" fill="#000"/>
<path d="M222.912 22.0386H218.097V23.376C218.097 24.3122 218.231 25.1147 218.498 25.5159C218.766 25.9172 219.3 26.1847 219.969 26.1847C220.638 26.1847 221.173 25.9172 221.708 25.5159C222.243 24.981 222.51 24.446 222.778 23.5098H223.045C222.912 24.446 222.51 25.2485 221.842 25.7834C221.173 26.3184 220.504 26.5859 219.568 26.5859C218.364 26.5859 217.428 26.1847 216.626 25.3822C215.823 24.5797 215.422 23.6435 215.422 22.4398C215.422 21.3698 215.823 20.2999 216.626 19.4974C217.428 18.6949 218.364 18.2937 219.434 18.2937C220.37 18.2937 221.307 18.6949 221.975 19.3637C222.644 20.0324 222.912 20.9686 222.912 22.0386ZM220.37 21.7711V20.4336C220.37 19.6312 220.237 19.2299 220.103 18.9624C219.969 18.6949 219.702 18.5612 219.167 18.5612C218.766 18.5612 218.498 18.6949 218.364 18.9624C218.231 19.2299 218.097 19.7649 218.097 20.5674V21.7711H220.37Z" fill="#000"/>
<path d="M224.118 26.5857V23.6433H224.386C224.787 24.5795 225.188 25.2482 225.723 25.6494C226.258 26.0507 226.793 26.3182 227.328 26.3182C227.863 26.3182 228.264 26.1844 228.532 25.9169C228.799 25.6495 228.933 25.2482 228.933 24.847C228.933 24.1783 228.264 23.9108 227.061 23.6433C226.793 23.6433 226.659 23.5095 226.526 23.5095C225.589 23.3758 224.921 23.1083 224.519 22.7071C224.118 22.3058 223.984 21.7708 223.984 21.1021C223.984 20.2996 224.252 19.6309 224.787 19.0959C225.322 18.5609 225.991 18.2935 226.659 18.2935C227.061 18.2935 227.462 18.4272 227.863 18.5609C228.264 18.6947 228.532 18.8284 228.532 18.8284C228.665 18.8284 228.799 18.8284 228.799 18.6947C228.933 18.6947 228.933 18.5609 229.067 18.4272H229.334V20.9684H229.067C228.799 20.1659 228.532 19.6309 228.13 19.2297C227.729 18.8284 227.194 18.6947 226.526 18.6947C226.124 18.6947 225.723 18.8284 225.322 19.0959C225.054 19.3634 224.921 19.6309 224.921 20.0321C224.921 20.1659 224.921 20.4334 225.054 20.5671C225.188 20.7009 225.322 20.8346 225.456 20.9684C225.589 21.1021 225.991 21.1021 226.526 21.2359C227.061 21.2359 227.462 21.3696 227.863 21.3696C228.665 21.5033 229.2 21.7708 229.468 22.1721C229.735 22.5733 230.003 23.1083 230.003 23.777C230.003 24.7132 229.735 25.382 229.2 25.9169C228.665 26.4519 227.997 26.7194 227.061 26.7194C226.793 26.7194 226.392 26.5857 225.991 26.4519C225.589 26.3182 225.188 26.1844 225.054 26.1844C224.787 26.1844 224.653 26.1844 224.519 26.3182C224.386 26.3182 224.252 26.4519 224.252 26.5857H224.118V26.5857Z" fill="#000"/>
</svg>
