<svg xmlns="http://www.w3.org/2000/svg" xmlns:xlink="http://www.w3.org/1999/xlink" version="1.1" id="Capa_1" x="0px" y="0px" width="147.47px" height="90.816px" viewBox="0 0 147.47 90.816" enable-background="new 0 0 147.47 90.816" xml:space="preserve">
<g>
	<path fill="#000" d="M48.975,26.936c3.918,0,5.877-1.632,5.877-4.897v-2.449c0-3.264-1.959-4.898-5.877-4.898H0L0.05,0h48.925   C63.34,0,70.522,6.53,70.522,19.589v2.449c0,13.059-7.183,19.589-21.548,19.589H15.673v26.936H0V26.936H48.975z"/>
	<path fill="#000" d="M98.496,41.627c-14.365,0-21.548-6.53-21.548-19.589v-2.449C76.948,6.53,84.131,0,98.496,0h48.975v14.692   H98.496c-3.918,0-5.877,1.634-5.877,4.898v2.449c0,3.265,1.959,4.897,5.877,4.897h27.426c14.365,0,21.549,6.53,21.549,19.588v2.449   c0,13.061-7.184,19.59-21.549,19.59H76.998l-0.05-14.691h48.974c3.918,0,5.877-1.633,5.877-4.898v-2.449   c0-3.263-1.959-4.896-5.877-4.896H98.496z"/>
	<path fill="#000" d="M0.345,90.51V78.487h3.583c2.394,0,3.872,1.104,3.872,3.209s-1.479,3.227-3.872,3.227H1.566v5.588H0.345z    M1.566,83.801h2.055c1.767,0,2.854-0.729,2.854-2.105c0-1.408-1.104-2.088-2.854-2.088H1.566V83.801z"/>
	<path fill="none" stroke="#000" strokeWidth="0.186" stroke-miterlimit="10" d="M0.345,90.51V78.487h3.583   c2.394,0,3.872,1.104,3.872,3.209s-1.479,3.227-3.872,3.227H1.566v5.588H0.345z M1.566,83.801h2.055   c1.767,0,2.854-0.729,2.854-2.105c0-1.408-1.104-2.088-2.854-2.088H1.566V83.801z"/>
	<path fill="#000" d="M21.811,84.499c0,3.6-2.683,6.318-6.266,6.318s-6.268-2.734-6.268-6.318s2.666-6.318,6.268-6.318   C19.162,78.18,21.811,80.915,21.811,84.499 M15.545,89.696c2.972,0,4.94-2.311,4.94-5.197s-2.021-5.197-4.958-5.197   c-2.869,0-4.925,2.258-4.925,5.197C10.603,87.436,12.641,89.696,15.545,89.696"/>
	<path fill="none" stroke="#000" strokeWidth="0.186" stroke-miterlimit="10" d="M21.811,84.499c0,3.6-2.683,6.318-6.266,6.318   s-6.268-2.734-6.268-6.318s2.666-6.318,6.268-6.318C19.162,78.18,21.811,80.915,21.811,84.499z M15.545,89.696   c2.972,0,4.94-2.311,4.94-5.197s-2.021-5.197-4.958-5.197c-2.869,0-4.925,2.258-4.925,5.197   C10.603,87.436,12.641,89.696,15.545,89.696z"/>
	<polygon fill="#000" points="22.628,78.487 23.987,78.487 26.874,88.778 26.908,88.778 29.931,78.487 31.391,78.487    34.414,88.778 34.447,88.778 37.301,78.487 38.659,78.487 35.11,90.51 33.683,90.51 30.661,80.219 30.627,80.219 27.604,90.51    26.178,90.51  "/>
	<polygon fill="none" stroke="#000" strokeWidth="0.186" stroke-miterlimit="10" points="22.628,78.487 23.987,78.487    26.874,88.778 26.908,88.778 29.931,78.487 31.391,78.487 34.414,88.778 34.447,88.778 37.301,78.487 38.659,78.487 35.11,90.51    33.683,90.51 30.661,80.219 30.627,80.219 27.604,90.51 26.178,90.51  "/>
	<polygon fill="#000" points="40.292,78.487 47.747,78.487 47.747,79.608 41.515,79.608 41.515,83.7 47.339,83.7 47.339,84.821    41.515,84.821 41.515,89.389 47.95,89.389 47.95,90.51 40.292,90.51  "/>
	<polygon fill="none" stroke="#000" strokeWidth="0.186" stroke-miterlimit="10" points="40.292,78.487 47.747,78.487    47.747,79.608 41.515,79.608 41.515,83.7 47.339,83.7 47.339,84.821 41.515,84.821 41.515,89.389 47.95,89.389 47.95,90.51    40.292,90.51  "/>
	<path fill="#000" d="M50.363,90.51V78.487h3.787c2.377,0,3.872,1.104,3.872,3.209c0,1.699-1.087,2.922-3.058,3.107l3.448,5.707   h-1.495l-3.295-5.588h-2.038v5.588H50.363z M53.845,83.801c1.817,0,2.853-0.746,2.853-2.105c0-1.375-1.087-2.088-2.853-2.088h-2.26   v4.193H53.845z"/>
	<path fill="none" stroke="#000" strokeWidth="0.186" stroke-miterlimit="10" d="M50.363,90.51V78.487h3.787   c2.377,0,3.872,1.104,3.872,3.209c0,1.699-1.087,2.922-3.058,3.107l3.448,5.707h-1.495l-3.295-5.588h-2.038v5.588H50.363z    M53.845,83.801c1.817,0,2.853-0.746,2.853-2.105c0-1.375-1.087-2.088-2.853-2.088h-2.26v4.193H53.845z"/>
	<path fill="#000" d="M71.915,79.641l-1.07,0.832c-0.544-0.797-1.308-1.172-2.326-1.172c-1.443,0-2.564,0.834-2.564,2.174   c0,1.104,0.713,1.75,2.208,2.225c2.242,0.713,3.94,1.291,3.957,3.617c0.017,2.004-1.834,3.498-3.974,3.498   c-1.545,0-2.904-0.611-3.771-1.783l1.104-0.797c0.525,0.9,1.477,1.461,2.717,1.461c1.358,0,2.598-0.902,2.598-2.191   c0-1.172-0.628-1.816-2.479-2.379c-2.056-0.645-3.686-1.223-3.686-3.531c0-2.123,1.714-3.414,3.889-3.414   C70.064,78.18,71.101,78.69,71.915,79.641"/>
	<path fill="none" stroke="#000" strokeWidth="0.186" stroke-miterlimit="10" d="M71.915,79.641l-1.07,0.832   c-0.544-0.797-1.308-1.172-2.326-1.172c-1.443,0-2.564,0.834-2.564,2.174c0,1.104,0.713,1.75,2.208,2.225   c2.242,0.713,3.94,1.291,3.957,3.617c0.017,2.004-1.834,3.498-3.974,3.498c-1.545,0-2.904-0.611-3.771-1.783l1.104-0.797   c0.525,0.9,1.477,1.461,2.717,1.461c1.358,0,2.598-0.902,2.598-2.191c0-1.172-0.628-1.816-2.479-2.379   c-2.056-0.645-3.686-1.223-3.686-3.531c0-2.123,1.714-3.414,3.889-3.414C70.064,78.18,71.101,78.69,71.915,79.641z"/>
	<path fill="#000" d="M86.317,84.499c0,3.6-2.683,6.318-6.266,6.318s-6.268-2.734-6.268-6.318s2.667-6.318,6.268-6.318   C83.668,78.18,86.317,80.915,86.317,84.499 M80.052,89.696c2.972,0,4.94-2.311,4.94-5.197s-2.021-5.197-4.957-5.197   c-2.871,0-4.926,2.258-4.926,5.197C75.109,87.436,77.147,89.696,80.052,89.696"/>
	<path fill="none" stroke="#000" strokeWidth="0.186" stroke-miterlimit="10" d="M86.317,84.499c0,3.6-2.683,6.318-6.266,6.318   s-6.268-2.734-6.268-6.318s2.667-6.318,6.268-6.318C83.668,78.18,86.317,80.915,86.317,84.499z M80.052,89.696   c2.972,0,4.94-2.311,4.94-5.197s-2.021-5.197-4.957-5.197c-2.871,0-4.926,2.258-4.926,5.197   C75.109,87.436,77.147,89.696,80.052,89.696z"/>
	<polygon fill="#000" points="89.988,89.389 95.592,89.389 95.592,90.51 88.766,90.51 88.766,78.487 89.988,78.487  "/>
	<polygon fill="none" stroke="#000" strokeWidth="0.186" stroke-miterlimit="10" points="89.988,89.389 95.592,89.389    95.592,90.51 88.766,90.51 88.766,78.487 89.988,78.487  "/>
	<path fill="#000" d="M97.053,78.487h1.224v7.488c0,2.361,1.206,3.719,3.177,3.719c1.969,0,3.174-1.357,3.174-3.719v-7.488h1.224   v7.607c0,2.768-1.478,4.721-4.397,4.721c-2.904,0-4.4-1.918-4.4-4.721V78.487z"/>
	<path fill="none" stroke="#000" strokeWidth="0.186" stroke-miterlimit="10" d="M97.053,78.487h1.224v7.488   c0,2.361,1.206,3.719,3.177,3.719c1.969,0,3.174-1.357,3.174-3.719v-7.488h1.224v7.607c0,2.768-1.478,4.721-4.397,4.721   c-2.904,0-4.4-1.918-4.4-4.721V78.487z"/>
	<polygon fill="#000" points="107.516,78.487 116.788,78.487 116.788,79.608 112.764,79.608 112.764,90.51 111.541,90.51    111.541,79.608 107.516,79.608  "/>
	<polygon fill="none" stroke="#000" strokeWidth="0.186" stroke-miterlimit="10" points="107.516,78.487 116.788,78.487    116.788,79.608 112.764,79.608 112.764,90.51 111.541,90.51 111.541,79.608 107.516,79.608  "/>
	<rect x="118.658" y="78.487" fill="#000" width="1.223" height="12.023"/>
	
		<rect x="118.658" y="78.487" fill="none" stroke="#000" strokeWidth="0.186" stroke-miterlimit="10" width="1.223" height="12.023"/>
	<path fill="#000" d="M134.859,84.499c0,3.6-2.684,6.318-6.266,6.318c-3.584,0-6.268-2.734-6.268-6.318s2.666-6.318,6.268-6.318   C132.21,78.18,134.859,80.915,134.859,84.499 M128.594,89.696c2.971,0,4.94-2.311,4.94-5.197s-2.021-5.197-4.958-5.197   c-2.87,0-4.925,2.258-4.925,5.197C123.651,87.436,125.689,89.696,128.594,89.696"/>
	<path fill="none" stroke="#000" strokeWidth="0.186" stroke-miterlimit="10" d="M134.859,84.499c0,3.6-2.684,6.318-6.266,6.318   c-3.584,0-6.268-2.734-6.268-6.318s2.666-6.318,6.268-6.318C132.21,78.18,134.859,80.915,134.859,84.499z M128.594,89.696   c2.971,0,4.94-2.311,4.94-5.197s-2.021-5.197-4.958-5.197c-2.87,0-4.925,2.258-4.925,5.197   C123.651,87.436,125.689,89.696,128.594,89.696z"/>
	<polygon fill="#000" points="137.307,90.51 137.307,78.487 138.836,78.487 146.002,88.676 146.035,88.676 146.035,78.487    147.259,78.487 147.259,90.51 145.729,90.51 138.563,80.219 138.529,80.219 138.529,90.51  "/>
	<polygon fill="none" stroke="#000" strokeWidth="0.186" stroke-miterlimit="10" points="137.307,90.51 137.307,78.487    138.836,78.487 146.002,88.676 146.035,88.676 146.035,78.487 147.259,78.487 147.259,90.51 145.729,90.51 138.563,80.219    138.529,80.219 138.529,90.51  "/>
</g>
</svg>