<svg viewBox="0 0 127.56 31.12" xmlns="http://www.w3.org/2000/svg"><g fill="#000000"><path d="m1.18 8.34 7.14-6.95a14.9 14.9 0 0 0 -1.42.75l-5.37 5.5z"></path><path d="m0 12.39 12.63-12.28c-.33 0-.66.11-1 .17l-11.58 11.88a1.64 1.64 0 0 1 -.05.23z"></path><path d="m.13 15.22 15.54-15.14c-.28 0-.56 0-.85-.06l-14.71 15.09a.36.36 0 0 1 .02.11z"></path><path d="m.81 17.49 17.34-16.9c-.25-.08-.49-.16-.75-.22l-16.62 17.06z"></path><path d="m1.89 19.36 18.33-17.86c-.22-.12-.43-.25-.65-.35l-17.71 18.17z"></path><path d="m3.3 20.91 18.64-18.17c-.17-.16-.35-.32-.54-.47l-18.13 18.61z"></path><path d="m5.05 22.14 18.3-17.84a6.17 6.17 0 0 0 -.44-.57l-17.91 18.38z"></path><path d="m3.24 27.4 17.92-18.4h-.05l-18.3 17.83c.19.17.28.39.43.57z"></path><path d="m4.75 28.85 18.14-18.6-18.68 18.14c.18.15.35.32.54.46z"></path><path d="m6.58 30 17.72-18.2-18.36 17.83c.21.12.42.24.64.37z"></path><path d="m8.75 30.76 16.63-17.06v-.07l-17.38 16.91z"></path><path d="m11.33 31.11 14.67-15.11a.5.5 0 0 0 0-.12l-15.51 15.17c.28.02.56.05.84.06z"></path><path d="m14.52 30.84 11.58-11.84v-.23l-12.57 12.23c.33 0 .66-.09.99-.16z"></path><path d="m19.25 29 5.37-5.51c.13-.23.24-.46.35-.7l-7.13 7a13.64 13.64 0 0 0 1.41-.79z"></path><path d="m37.3 17.9h2.7c.1 1.1 1.16 1.89 2.76 1.89 1.41 0 2.41-.52 2.41-1.4 0-1.08-1-1.19-2.83-1.41-2.68-.32-4.84-.88-4.84-3.27 0-2.24 2-3.71 5-3.68s5.14 1.35 5.3 3.71h-2.8c-.09-1-1.08-1.64-2.47-1.64s-2.25.51-2.25 1.37 1.07 1 2.76 1.23c2.68.3 4.93.9 4.93 3.49 0 2.25-2.18 3.67-5.19 3.67-3.19 0-5.39-1.47-5.48-3.96z"></path><path d="m49 10.18h2.5l.3 1.49a4.16 4.16 0 0 1 3.49-1.62 3.71 3.71 0 0 1 3.59 2 4.74 4.74 0 0 1 4.1-2c2.32 0 4.38 1.26 4.38 5.24v6.43h-2.85v-6.48c0-1.86-.77-2.85-2.3-2.85s-2.57 1.14-2.57 3.06v6.27h-2.89v-6.48c0-1.86-.76-2.85-2.29-2.85s-2.57 1.21-2.57 3.1v6.23h-2.89z"></path><path d="m68.14 18.46c0-2.41 1.83-3.76 5.28-3.76h2.66v-.63c0-1.16-.9-1.88-2.4-1.88s-2.27.6-2.44 1.55h-2.77c.23-2.36 2.26-3.69 5.32-3.69 3.24 0 5.14 1.46 5.14 4.18v7.49h-2.52l-.23-1.55a4.48 4.48 0 0 1 -3.71 1.69c-2.59 0-4.33-1.24-4.33-3.4zm7.94-1.46v-.32h-2.75c-1.44 0-2.27.54-2.27 1.62 0 .9.74 1.49 2 1.49a2.73 2.73 0 0 0 3.02-2.79z"></path><path d="m80.16 10.18h2.59l.25 1.74a3.66 3.66 0 0 1 3.47-1.74h.56v2.57h-1.18c-2.08 0-2.85 1.48-2.85 3.25v5.73h-2.84z"></path><path d="m87.89 18.51v-11.51h2.87v3.21h2.8v2.41h-2.8v5.53c0 .86.35 1.2 1.21 1.2h1.78v2.4h-2.55c-2.27-.03-3.31-1.09-3.31-3.24z"></path><path d="m93.82 15.94c0-3.55 2.38-5.89 6-5.89 3.1 0 5.12 1.66 5.58 4.34h-3a2.6 2.6 0 0 0 -2.67-2c-1.85 0-3 1.46-3 3.57s1.2 3.6 3 3.6a2.57 2.57 0 0 0 2.69-2.07h2.94c-.46 2.7-2.48 4.39-5.63 4.39a5.6 5.6 0 0 1 -5.91-5.94z"></path><path d="m106.39 6h2.87v15.72h-2.87z"></path><path d="m110.63 7.08a1.6 1.6 0 0 1 1.69-1.6 1.62 1.62 0 0 1 1.68 1.6 1.64 1.64 0 0 1 -1.71 1.64 1.62 1.62 0 0 1 -1.66-1.64zm.25 3.1h2.87v11.54h-2.87z"></path><path d="m115.37 10.18h2.5l.33 1.67a4.52 4.52 0 0 1 3.75-1.8c3.24 0 5.58 2.25 5.58 5.91s-2.34 5.9-5.56 5.9a4.49 4.49 0 0 1 -3.72-1.69v6h-2.88zm9.24 5.76c0-2.11-1.27-3.57-3.22-3.57s-3.17 1.46-3.17 3.55 1.23 3.62 3.17 3.62 3.22-1.48 3.22-3.6z"></path></g></svg>